<svg xmlns="http://www.w3.org/2000/svg" width="173" height="49" fill="none" viewBox="0 0 173 49"><path fill="#000" d="M166.593 49H6.407C2.885 49 0 46.242 0 42.875V6.125C0 2.758 2.885 0 6.407 0h160.186C170.115 0 173 2.758 173 6.125v36.75c0 3.367-2.885 6.125-6.407 6.125"/><path fill="#A6A6A6" d="M166.593.982c2.966 0 5.38 2.307 5.38 5.143v36.75c0 2.836-2.414 5.144-5.38 5.144H6.407c-2.966 0-5.38-2.308-5.38-5.144V6.125c0-2.836 2.414-5.143 5.38-5.143zm0-.982H6.407C2.885 0 0 2.758 0 6.125v36.75C0 46.242 2.885 49 6.407 49h160.186c3.522 0 6.407-2.758 6.407-6.125V6.125C173 2.758 170.115 0 166.593 0"/><path fill="url(#a)" d="M13.372 9.235c-.376.377-.594.963-.594 1.723v27.09c0 .76.218 1.346.594 1.723l.093.083 15.881-15.175v-.358L13.466 9.146z"/><path fill="url(#b)" d="m34.634 29.74-5.288-5.06v-.36l5.294-5.06.119.066 6.27 3.41c1.788.968 1.788 2.56 0 3.534l-6.27 3.404z"/><path fill="url(#c)" d="M34.759 29.674 29.346 24.5 13.372 39.77c.595.597 1.564.67 2.666.072z"/><path fill="url(#d)" d="M34.759 19.326 16.038 9.156c-1.102-.59-2.071-.518-2.666.079L29.346 24.5z"/><path fill="#fff" stroke="#fff" stroke-miterlimit="10" stroke-width="0.16" d="M60.765 12.549c0 1.022-.32 1.842-.952 2.453q-1.09 1.087-2.829 1.088c-1.107 0-2.052-.37-2.827-1.1-.777-.742-1.165-1.651-1.165-2.74q0-1.632 1.165-2.733 1.164-1.106 2.827-1.107c.551 0 1.077.108 1.578.31.5.204.907.48 1.202.82l-.67.646c-.514-.58-1.214-.867-2.11-.867q-1.21 0-2.101.813Q54 10.95 54 12.25c0 .867.295 1.579.883 2.124a3.04 3.04 0 0 0 2.101.813c.857 0 1.578-.276 2.147-.82q.561-.539.644-1.49h-2.79v-.884h3.722c.045.191.058.376.058.556ZM66.67 9.48h-3.496v2.327h3.152v.886h-3.152v2.327h3.497v.902h-4.487V8.578h4.487zm4.169 6.442h-.99V9.48h-2.145v-.902h5.281v.902H70.84zm5.968 0V8.578h.989v7.344zm5.37 0h-.982V9.48h-2.153v-.902h5.287v.902h-2.152zm12.151-.945q-1.136 1.114-2.816 1.113-1.688 0-2.822-1.113-1.133-1.111-1.133-2.727t1.133-2.727q1.134-1.114 2.822-1.113c1.113 0 2.052.37 2.81 1.119.762.747 1.139 1.65 1.139 2.72q0 1.616-1.133 2.728Zm-4.906-.616c.57.55 1.264.826 2.09.826.82 0 1.52-.276 2.084-.825q.855-.826.857-2.112-.002-1.285-.857-2.112c-.564-.55-1.264-.825-2.084-.825-.826 0-1.52.276-2.09.825q-.855.827-.857 2.112.002 1.286.857 2.111Zm7.428 1.561V8.578h1.201l3.736 5.712h.043l-.043-1.412v-4.3h.988v7.344h-1.032l-3.911-5.993h-.044l.044 1.418v4.575z"/><path fill="#fff" d="M87.314 26.647c-3.01 0-5.469 2.19-5.469 5.21 0 2.997 2.459 5.21 5.469 5.21 3.016 0 5.475-2.213 5.475-5.21 0-3.02-2.459-5.21-5.475-5.21m0 8.368c-1.652 0-3.073-1.303-3.073-3.157 0-1.88 1.421-3.16 3.073-3.16s3.079 1.28 3.079 3.16c0 1.854-1.428 3.157-3.08 3.157m-11.932-8.368c-3.017 0-5.47 2.19-5.47 5.21 0 2.997 2.453 5.21 5.47 5.21 3.014 0 5.468-2.213 5.468-5.21 0-3.02-2.454-5.21-5.468-5.21m0 8.368c-1.654 0-3.08-1.303-3.08-3.157 0-1.88 1.426-3.16 3.08-3.16 1.651 0 3.072 1.28 3.072 3.16 0 1.854-1.42 3.157-3.072 3.157m-14.2-6.771v2.214h5.532c-.162 1.237-.594 2.147-1.257 2.78-.808.767-2.065 1.616-4.274 1.616-3.404 0-6.07-2.626-6.07-5.88s2.666-5.88 6.07-5.88c1.84 0 3.18.688 4.168 1.58l1.632-1.561c-1.382-1.262-3.221-2.231-5.8-2.231-4.668 0-8.591 3.63-8.591 8.092s3.923 8.093 8.59 8.093c2.524 0 4.419-.79 5.908-2.272 1.527-1.46 2.003-3.512 2.003-5.168 0-.515-.045-.988-.125-1.383zm58.061 1.717c-.45-1.166-1.838-3.314-4.667-3.314-2.804 0-5.137 2.112-5.137 5.21 0 2.92 2.309 5.21 5.406 5.21a5.46 5.46 0 0 0 4.543-2.31l-1.859-1.183c-.619.867-1.464 1.441-2.684 1.441-1.213 0-2.083-.531-2.64-1.579l7.29-2.883zm-7.432 1.734c-.063-2.009 1.632-3.038 2.846-3.038.952 0 1.759.455 2.028 1.106zm-5.925 5.055h2.396V21.438h-2.396zm-3.925-8.942h-.08c-.538-.61-1.565-1.161-2.866-1.161-2.73 0-5.225 2.29-5.225 5.228 0 2.92 2.496 5.192 5.225 5.192 1.301 0 2.328-.556 2.866-1.184h.08v.748c0 1.992-1.113 3.062-2.909 3.062-1.464 0-2.372-1.01-2.747-1.86l-2.084.831a5.2 5.2 0 0 0 4.831 3.081c2.81 0 5.181-1.58 5.181-5.425v-9.356h-2.272zm-2.74 7.207c-1.652 0-3.035-1.321-3.035-3.14 0-1.836 1.383-3.176 3.034-3.176 1.628 0 2.911 1.34 2.911 3.176 0 1.819-1.283 3.14-2.91 3.14m31.242-13.577h-5.732V36.75h2.39v-5.802h3.342c2.654 0 5.257-1.836 5.257-4.756s-2.609-4.754-5.257-4.754m.062 7.38h-3.404v-5.25h3.404c1.785 0 2.804 1.416 2.804 2.624 0 1.185-1.019 2.626-2.804 2.626m14.774-2.2c-1.727 0-3.522.729-4.261 2.344l2.121.85c.457-.85 1.296-1.126 2.183-1.126 1.24 0 2.498.712 2.517 1.97v.16c-.433-.238-1.358-.592-2.497-.592-2.285 0-4.612 1.202-4.612 3.445 0 2.052 1.871 3.374 3.974 3.374 1.608 0 2.496-.694 3.053-1.501h.082v1.184h2.308v-5.874c0-2.715-2.121-4.234-4.868-4.234m-.288 8.391c-.782 0-1.871-.37-1.871-1.297 0-1.185 1.358-1.64 2.534-1.64 1.052 0 1.546.222 2.185.515-.187 1.417-1.464 2.422-2.848 2.422m13.566-8.056-2.747 6.638h-.082l-2.84-6.638h-2.577l4.267 9.276-2.435 5.162h2.497l6.576-14.438zm-21.543 9.797h2.396V21.438h-2.396z"/><defs><linearGradient id="a" x1="27.936" x2="7.39843" y1="38.3305" y2="16.846" gradientUnits="userSpaceOnUse"><stop stop-color="#00A0FF"/><stop offset="0.0066" stop-color="#00A1FF"/><stop offset="0.2601" stop-color="#00BEFF"/><stop offset="0.5122" stop-color="#00D2FF"/><stop offset="0.7604" stop-color="#00DFFF"/><stop offset="1" stop-color="#00E3FF"/></linearGradient><linearGradient id="b" x1="43.3582" x2="12.3503" y1="24.4982" y2="24.4982" gradientUnits="userSpaceOnUse"><stop stop-color="#FFE000"/><stop offset="0.4087" stop-color="#FFBD00"/><stop offset="0.7754" stop-color="orange"/><stop offset="1" stop-color="#FF9C00"/></linearGradient><linearGradient id="c" x1="31.8154" x2="3.96478" y1="21.6872" y2="-7.44751" gradientUnits="userSpaceOnUse"><stop stop-color="#FF3A44"/><stop offset="1" stop-color="#C31162"/></linearGradient><linearGradient id="d" x1="9.35141" x2="21.788" y1="48.7842" y2="35.7743" gradientUnits="userSpaceOnUse"><stop stop-color="#32A071"/><stop offset="0.0685" stop-color="#2DA771"/><stop offset="0.4762" stop-color="#15CF74"/><stop offset="0.8009" stop-color="#06E775"/><stop offset="1" stop-color="#00F076"/></linearGradient></defs></svg>