<svg width="173" height="49" viewBox="0 0 173 49" fill="none" xmlns="http://www.w3.org/2000/svg">
<path d="M166.593 49H6.40741C2.88494 49 0 46.2422 0 42.875V6.125C0 2.75778 2.88494 -9.53674e-07 6.40741 -9.53674e-07H166.593C170.115 -9.53674e-07 173 2.75778 173 6.125V42.875C173 46.2422 170.115 49 166.593 49Z" fill="black"/>
<path d="M166.593 0.98153C169.559 0.98153 171.973 3.28913 171.973 6.125V42.875C171.973 45.7109 169.559 48.0185 166.593 48.0185H6.40741C3.44078 48.0185 1.02679 45.7109 1.02679 42.875V6.125C1.02679 3.28913 3.44078 0.98153 6.40741 0.98153H166.593ZM166.593 -9.53674e-07H6.40741C2.88494 -9.53674e-07 0 2.75778 0 6.125V42.875C0 46.2422 2.88494 49 6.40741 49H166.593C170.115 49 173 46.2422 173 42.875V6.125C173 2.75778 170.115 -9.53674e-07 166.593 -9.53674e-07Z" fill="#A6A6A6"/>
<path d="M13.3724 9.23488C12.9959 9.61157 12.7781 10.198 12.7781 10.9575V38.0484C12.7781 38.8079 12.9959 39.3944 13.3724 39.7711L13.4653 39.8538L29.346 24.6791V24.3208L13.4653 9.14607L13.3724 9.23488Z" fill="url(#paint0_linear_74_462)"/>
<path d="M34.6337 29.7399L29.3459 24.6791V24.3208L34.6401 19.26L34.7586 19.3258L41.0283 22.7359C42.8175 23.7037 42.8175 25.2962 41.0283 26.2701L34.7586 29.674L34.6337 29.7399Z" fill="url(#paint1_linear_74_462)"/>
<path d="M34.7586 29.674L29.346 24.4999L13.3723 39.7711C13.9666 40.3683 14.9357 40.4403 16.0378 39.8431L34.7586 29.674Z" fill="url(#paint2_linear_74_462)"/>
<path d="M34.7586 19.3259L16.0378 9.15688C14.9357 8.56582 13.9666 8.63778 13.3723 9.23497L29.346 24.5L34.7586 19.3259Z" fill="url(#paint3_linear_74_462)"/>
<path d="M60.7646 12.5485C60.7646 13.5714 60.4442 14.3906 59.8131 15.0016C59.0875 15.7259 58.1424 16.0903 56.9842 16.0903C55.8774 16.0903 54.9323 15.7197 54.157 14.9893C53.3801 14.2482 52.9924 13.3386 52.9924 12.2499C52.9924 11.1612 53.3801 10.2516 54.157 9.51664C54.9323 8.78011 55.8774 8.40955 56.9842 8.40955C57.5353 8.40955 58.0607 8.51826 58.5621 8.72039C59.0618 8.92405 59.4687 9.19967 59.7635 9.53961L59.0939 10.1858C58.5797 9.60545 57.8797 9.31911 56.9842 9.31911C56.1769 9.31911 55.4769 9.58861 54.8826 10.1322C54.2947 10.6773 54 11.3832 54 12.2499C54 13.1166 54.2947 13.8286 54.8826 14.3738C55.4769 14.9112 56.1769 15.1869 56.9842 15.1869C57.8412 15.1869 58.5621 14.9112 59.1307 14.3676C59.5056 14.0078 59.7186 13.5117 59.7747 12.8777H56.9842V11.9927H60.7069C60.7518 12.1841 60.7646 12.3694 60.7646 12.5485Z" fill="white" stroke="white" stroke-width="0.16" stroke-miterlimit="10"/>
<path d="M66.6706 9.47991H63.1738V11.8074H66.3262V12.6925H63.1738V15.02H66.6706V15.9219H62.1838V8.578H66.6706V9.47991Z" fill="white" stroke="white" stroke-width="0.16" stroke-miterlimit="10"/>
<path d="M70.8387 15.9219H69.8487V9.47991H67.7039V8.578H72.9852V9.47991H70.8387V15.9219Z" fill="white" stroke="white" stroke-width="0.16" stroke-miterlimit="10"/>
<path d="M76.8071 15.9219V8.578H77.7955V15.9219H76.8071Z" fill="white" stroke="white" stroke-width="0.16" stroke-miterlimit="10"/>
<path d="M82.1766 15.9219H81.1946V9.47991H79.0417V8.578H84.3294V9.47991H82.1766V15.9219Z" fill="white" stroke="white" stroke-width="0.16" stroke-miterlimit="10"/>
<path d="M94.3282 14.9771C93.5705 15.7197 92.6318 16.0903 91.5121 16.0903C90.386 16.0903 89.4473 15.7197 88.6896 14.9771C87.9336 14.236 87.5571 13.3264 87.5571 12.2499C87.5571 11.1735 87.9336 10.2639 88.6896 9.52277C89.4473 8.78011 90.386 8.40955 91.5121 8.40955C92.6254 8.40955 93.5641 8.78011 94.3218 9.52889C95.0842 10.2761 95.4607 11.1796 95.4607 12.2499C95.4607 13.3264 95.0842 14.236 94.3282 14.9771ZM89.4217 14.3615C89.9919 14.9112 90.6855 15.1869 91.5121 15.1869C92.3322 15.1869 93.0323 14.9112 93.5961 14.3615C94.1648 13.8118 94.4531 13.1059 94.4531 12.2499C94.4531 11.394 94.1648 10.688 93.5961 10.1383C93.0323 9.58861 92.3322 9.31298 91.5121 9.31298C90.6855 9.31298 89.9919 9.58861 89.4217 10.1383C88.853 10.688 88.5647 11.394 88.5647 12.2499C88.5647 13.1059 88.853 13.8118 89.4217 14.3615Z" fill="white" stroke="white" stroke-width="0.16" stroke-miterlimit="10"/>
<path d="M96.8496 15.9219V8.578H98.051L101.787 14.2896H101.83L101.787 12.8777V8.578H102.775V15.9219H101.743L97.8315 9.92856H97.7883L97.8315 11.3465V15.9219H96.8496Z" fill="white" stroke="white" stroke-width="0.16" stroke-miterlimit="10"/>
<path d="M87.3138 26.6469C84.3039 26.6469 81.845 28.8366 81.845 31.8577C81.845 34.8544 84.3039 37.067 87.3138 37.067C90.33 37.067 92.7889 34.8544 92.7889 31.8577C92.7889 28.8366 90.33 26.6469 87.3138 26.6469ZM87.3138 35.0152C85.6623 35.0152 84.2414 33.7121 84.2414 31.8577C84.2414 29.9789 85.6623 28.6987 87.3138 28.6987C88.9653 28.6987 90.3925 29.9789 90.3925 31.8577C90.3925 33.7121 88.9653 35.0152 87.3138 35.0152ZM75.3816 26.6469C72.3653 26.6469 69.9129 28.8366 69.9129 31.8577C69.9129 34.8544 72.3653 37.067 75.3816 37.067C78.3963 37.067 80.8503 34.8544 80.8503 31.8577C80.8503 28.8366 78.3963 26.6469 75.3816 26.6469ZM75.3816 35.0152C73.7285 35.0152 72.3028 33.7121 72.3028 31.8577C72.3028 29.9789 73.7285 28.6987 75.3816 28.6987C77.0331 28.6987 78.4539 29.9789 78.4539 31.8577C78.4539 33.7121 77.0331 35.0152 75.3816 35.0152ZM61.1828 28.244V30.4582H66.714C66.5522 31.6954 66.1197 32.605 65.4565 33.2389C64.6492 34.0045 63.3917 34.8544 61.1828 34.8544C57.7788 34.8544 55.1134 32.2283 55.1134 28.9744C55.1134 25.7205 57.7788 23.0944 61.1828 23.0944C63.0233 23.0944 64.3624 23.7819 65.3508 24.6731L66.9831 23.1127C65.6007 21.851 63.7617 20.8817 61.1828 20.8817C56.515 20.8817 52.592 24.5123 52.592 28.9744C52.592 33.4364 56.515 37.067 61.1828 37.067C63.7057 37.067 65.6007 36.2769 67.0904 34.7947C68.617 33.3354 69.0927 31.2835 69.0927 29.6267C69.0927 29.1122 69.0479 28.639 68.9678 28.244H61.1828ZM119.243 29.9605C118.793 28.7952 117.405 26.6469 114.576 26.6469C111.772 26.6469 109.439 28.7585 109.439 31.8577C109.439 34.7763 111.748 37.067 114.845 37.067C117.348 37.067 118.793 35.6077 119.388 34.7579L117.529 33.5742C116.91 34.4409 116.065 35.0152 114.845 35.0152C113.632 35.0152 112.762 34.4838 112.205 33.4364L119.495 30.5531L119.243 29.9605ZM111.811 31.6954C111.748 29.6864 113.443 28.6574 114.657 28.6574C115.609 28.6574 116.416 29.1122 116.685 29.763L111.811 31.6954ZM105.886 36.7501H108.282V21.4376H105.886V36.7501ZM101.961 27.8076H101.881C101.343 27.1981 100.316 26.6469 99.0153 26.6469C96.2857 26.6469 93.7901 28.9376 93.7901 31.8746C93.7901 34.7947 96.2857 37.067 99.0153 37.067C100.316 37.067 101.343 36.5112 101.881 35.8834H101.961V36.6306C101.961 38.6228 100.848 39.6931 99.0521 39.6931C97.588 39.6931 96.6798 38.6825 96.305 37.8327L94.2209 38.6641C94.8216 40.0453 96.4123 41.745 99.0521 41.745C101.862 41.745 104.233 40.1647 104.233 36.3198V26.9638H101.961V27.8076ZM99.2203 35.0152C97.5688 35.0152 96.1864 33.6937 96.1864 31.8746C96.1864 30.0386 97.5688 28.6987 99.2203 28.6987C100.848 28.6987 102.131 30.0386 102.131 31.8746C102.131 33.6937 100.848 35.0152 99.2203 35.0152ZM130.463 21.4376H124.731V36.7501H127.121V30.9482H130.463C133.117 30.9482 135.72 29.1122 135.72 26.1921C135.72 23.2735 133.111 21.4376 130.463 21.4376ZM130.525 28.8182H127.121V23.5675H130.525C132.31 23.5675 133.329 24.9839 133.329 26.1921C133.329 27.3773 132.31 28.8182 130.525 28.8182ZM145.299 26.6178C143.572 26.6178 141.777 27.3467 141.038 28.9621L143.159 29.812C143.616 28.9621 144.455 28.6865 145.342 28.6865C146.582 28.6865 147.84 29.3985 147.859 30.6557V30.8165C147.426 30.5776 146.501 30.2239 145.362 30.2239C143.077 30.2239 140.75 31.4259 140.75 33.6692C140.75 35.7211 142.621 37.0425 144.724 37.0425C146.332 37.0425 147.22 36.3489 147.777 35.5419H147.859V36.7256H150.167V30.8517C150.167 28.1368 148.046 26.6178 145.299 26.6178ZM145.011 35.009C144.229 35.009 143.14 34.6385 143.14 33.7121C143.14 32.5269 144.498 32.0721 145.674 32.0721C146.726 32.0721 147.22 32.2941 147.859 32.5866C147.672 34.0045 146.395 35.009 145.011 35.009ZM158.577 26.9531L155.83 33.5911H155.748L152.908 26.9531H150.331L154.598 36.2294L152.163 41.3913H154.66L161.236 26.9531H158.577ZM137.034 36.7501H139.43V21.4376H137.034V36.7501Z" fill="white"/>
<defs>
<linearGradient id="paint0_linear_74_462" x1="27.936" y1="38.3305" x2="7.39843" y2="16.846" gradientUnits="userSpaceOnUse">
<stop stop-color="#00A0FF"/>
<stop offset="0.0066" stop-color="#00A1FF"/>
<stop offset="0.2601" stop-color="#00BEFF"/>
<stop offset="0.5122" stop-color="#00D2FF"/>
<stop offset="0.7604" stop-color="#00DFFF"/>
<stop offset="1" stop-color="#00E3FF"/>
</linearGradient>
<linearGradient id="paint1_linear_74_462" x1="43.3582" y1="24.4982" x2="12.3503" y2="24.4982" gradientUnits="userSpaceOnUse">
<stop stop-color="#FFE000"/>
<stop offset="0.4087" stop-color="#FFBD00"/>
<stop offset="0.7754" stop-color="#FFA500"/>
<stop offset="1" stop-color="#FF9C00"/>
</linearGradient>
<linearGradient id="paint2_linear_74_462" x1="31.8154" y1="21.6872" x2="3.96478" y2="-7.44751" gradientUnits="userSpaceOnUse">
<stop stop-color="#FF3A44"/>
<stop offset="1" stop-color="#C31162"/>
</linearGradient>
<linearGradient id="paint3_linear_74_462" x1="9.35141" y1="48.7842" x2="21.788" y2="35.7743" gradientUnits="userSpaceOnUse">
<stop stop-color="#32A071"/>
<stop offset="0.0685" stop-color="#2DA771"/>
<stop offset="0.4762" stop-color="#15CF74"/>
<stop offset="0.8009" stop-color="#06E775"/>
<stop offset="1" stop-color="#00F076"/>
</linearGradient>
</defs>
</svg>
