<svg aria-hidden="true" style="position: absolute; width: 0; height: 0; overflow: hidden;" version="1.1" xmlns="http://www.w3.org/2000/svg" xmlns:xlink="http://www.w3.org/1999/xlink">
<defs>
<symbol id="icon-GET-IT-ON" viewBox="0 0 181 32">
<path fill="#fff" style="fill: var(--color1, #fff)" d="M31.163 16.173c0 3.637-1.139 6.55-3.383 8.722-2.58 2.575-5.94 3.871-10.058 3.871-3.936 0-7.296-1.318-10.053-3.915-2.762-2.635-4.141-5.869-4.141-9.74s1.378-7.105 4.141-9.718c2.757-2.619 6.117-3.936 10.053-3.936 1.959 0 3.827 0.387 5.61 1.105 1.777 0.724 3.224 1.704 4.272 2.913l-2.381 2.298c-1.828-2.063-4.317-3.082-7.501-3.082-2.871 0-5.359 0.958-7.472 2.891-2.090 1.938-3.138 4.448-3.138 7.53s1.048 5.613 3.138 7.551c2.113 1.911 4.602 2.891 7.472 2.891 3.047 0 5.61-0.98 7.632-2.913 1.333-1.279 2.090-3.043 2.29-5.297h-9.922v-3.147h13.236c0.159 0.681 0.205 1.339 0.205 1.976z"></path>
<path fill="#fff" style="fill: var(--color1, #fff)" d="M52.162 5.262h-12.433v8.276h11.209v3.147h-11.209v8.276h12.433v3.207h-15.953v-26.112h15.953v3.207z"></path>
<path fill="#fff" style="fill: var(--color1, #fff)" d="M66.982 28.167h-3.52v-22.905h-7.626v-3.207h18.778v3.207h-7.632v22.905z"></path>
<path fill="#fff" style="fill: var(--color1, #fff)" d="M88.203 28.167v-26.112h3.514v26.112h-3.514z"></path>
<path fill="#fff" style="fill: var(--color1, #fff)" d="M107.295 28.167h-3.492v-22.905h-7.655v-3.207h18.801v3.207h-7.654v22.905z"></path>
<path fill="#fff" style="fill: var(--color1, #fff)" d="M150.5 24.808c-2.694 2.641-6.032 3.958-10.013 3.958-4.004 0-7.341-1.318-10.036-3.958-2.688-2.635-4.027-5.869-4.027-9.697s1.339-7.061 4.027-9.697c2.694-2.641 6.032-3.958 10.036-3.958 3.958 0 7.296 1.318 9.99 3.98 2.711 2.657 4.049 5.869 4.049 9.675 0 3.827-1.339 7.061-4.027 9.697zM133.055 22.619c2.027 1.955 4.494 2.935 7.433 2.935 2.916 0 5.405-0.98 7.41-2.935 2.022-1.955 3.047-4.464 3.047-7.508s-1.025-5.553-3.047-7.508c-2.005-1.955-4.494-2.935-7.41-2.935-2.939 0-5.405 0.98-7.433 2.935-2.022 1.955-3.047 4.464-3.047 7.508s1.025 5.553 3.047 7.508z"></path>
<path fill="#fff" style="fill: var(--color1, #fff)" d="M159.465 28.167v-26.112h4.272l13.282 20.308h0.154l-0.154-5.020v-15.288h3.514v26.112h-3.668l-13.908-21.31h-0.154l0.154 5.042v16.268h-3.491z"></path>
</symbol>

<symbol id="icon-Google-Play" viewBox="0 0 160 32">
<path fill="#fff" style="fill: var(--color1, #fff)" d="M51.366 9.668c-4.378 0-7.955 3.185-7.955 7.579 0 4.359 3.577 7.577 7.955 7.577 4.387 0 7.964-3.218 7.964-7.577 0-4.394-3.577-7.579-7.964-7.579zM51.366 21.84c-2.402 0-4.469-1.895-4.469-4.593 0-2.733 2.067-4.595 4.469-4.595s4.478 1.862 4.478 4.595c0 2.697-2.076 4.593-4.478 4.593zM34.010 9.668c-4.387 0-7.954 3.185-7.954 7.579 0 4.359 3.567 7.577 7.954 7.577 4.385 0 7.954-3.218 7.954-7.577 0-4.394-3.569-7.579-7.954-7.579zM34.010 21.84c-2.404 0-4.478-1.895-4.478-4.593 0-2.733 2.074-4.595 4.478-4.595 2.402 0 4.469 1.862 4.469 4.595 0 2.697-2.067 4.593-4.469 4.593zM13.357 11.991v3.221h8.045c-0.235 1.8-0.864 3.123-1.829 4.045-1.174 1.114-3.003 2.35-6.216 2.35-4.951 0-8.828-3.82-8.828-8.553s3.877-8.553 8.828-8.553c2.677 0 4.625 1 6.063 2.296l2.374-2.27c-2.011-1.835-4.686-3.245-8.437-3.245-6.79 0-12.496 5.281-12.496 11.771s5.706 11.771 12.496 11.771c3.67 0 6.426-1.149 8.593-3.305 2.221-2.123 2.912-5.107 2.912-7.517 0-0.748-0.065-1.437-0.182-2.011h-11.324zM97.809 14.488c-0.655-1.695-2.675-4.82-6.79-4.82-4.078 0-7.472 3.071-7.472 7.579 0 4.245 3.36 7.577 7.864 7.577 3.642 0 5.743-2.123 6.608-3.359l-2.703-1.722c-0.902 1.261-2.13 2.096-3.905 2.096-1.764 0-3.029-0.773-3.84-2.296l10.604-4.194-0.366-0.862zM86.998 17.011c-0.091-2.922 2.374-4.419 4.14-4.419 1.384 0 2.558 0.662 2.95 1.608l-7.090 2.811zM78.379 24.363h3.486v-22.273h-3.486v22.273zM72.671 11.356h-0.117c-0.783-0.886-2.276-1.688-4.168-1.688-3.97 0-7.6 3.332-7.6 7.604 0 4.247 3.63 7.553 7.6 7.553 1.892 0 3.385-0.808 4.168-1.722h0.117v1.087c0 2.898-1.619 4.455-4.231 4.455-2.13 0-3.451-1.47-3.996-2.706l-3.031 1.209c0.874 2.009 3.188 4.481 7.027 4.481 4.087 0 7.535-2.299 7.535-7.891v-13.609h-3.304v1.227zM68.684 21.84c-2.402 0-4.413-1.922-4.413-4.568 0-2.67 2.011-4.619 4.413-4.619 2.367 0 4.234 1.949 4.234 4.619 0 2.646-1.866 4.568-4.234 4.568zM114.128 2.091h-8.337v22.273h3.476v-8.439h4.86c3.861 0 7.647-2.67 7.647-6.918 0-4.245-3.796-6.916-7.647-6.916zM114.219 12.826h-4.951v-7.637h4.951c2.596 0 4.077 2.060 4.077 3.818 0 1.724-1.482 3.82-4.077 3.82zM135.708 9.626c-2.512 0-5.124 1.060-6.198 3.41l3.085 1.236c0.664-1.236 1.885-1.637 3.176-1.637 1.804 0 3.632 1.036 3.66 2.864v0.234c-0.629-0.347-1.976-0.862-3.632-0.862-3.322 0-6.708 1.748-6.708 5.011 0 2.984 2.721 4.907 5.781 4.907 2.339 0 3.63-1.009 4.441-2.183h0.119v1.722h3.358v-8.544c0-3.949-3.085-6.158-7.081-6.158zM135.288 21.831c-1.137 0-2.721-0.539-2.721-1.887 0-1.724 1.976-2.385 3.686-2.385 1.531 0 2.248 0.323 3.178 0.748-0.273 2.062-2.13 3.523-4.143 3.523zM155.021 10.113l-3.996 9.655h-0.119l-4.131-9.655h-3.749l6.207 13.493-3.542 7.508h3.632l9.565-21.001h-3.868zM123.685 24.363h3.486v-22.273h-3.486v22.273z"></path>
</symbol>

<symbol id="icon-hamburger-menu" viewBox="0 0 31 32">
<path d="M4.821 6h21.214v2h-21.214v-2zM4.821 15h21.214v2h-21.214v-2zM4.821 24h21.214v2h-21.214v-2z"></path>
</symbol>

<symbol id="icon-arrow-circled" viewBox="0 0 32 32">
<path d="M5.12 16c0 6.016 4.864 10.88 10.88 10.88s10.88-4.864 10.88-10.88-4.864-10.88-10.88-10.88c-6.016 0-10.88 4.864-10.88 10.88zM25.6 16c0 5.312-4.288 9.6-9.6 9.6s-9.6-4.288-9.6-9.6c0-5.312 4.288-9.6 9.6-9.6s9.6 4.288 9.6 9.6z"></path>
<path d="M14.912 10.688l5.312 5.312-5.312 5.312 0.896 0.896 6.208-6.208-6.208-6.208-0.896 0.896z"></path>
<path d="M21.12 16.64v-1.28h-10.88v1.28h10.88z"></path>
</symbol>

<symbol id="icon-close_btn" viewBox="0 0 31 32">
<path stroke-linejoin="round" stroke-linecap="round" stroke-miterlimit="4" stroke-width="2" d="M15.5 16l9.042 9.333M15.5 16l-9.042-9.333M15.5 16l-9.042 9.333M15.5 16l9.042-9.333"></path>
</symbol>

<symbol id="icon-arrow-filled" viewBox="0 0 16 32">
<path d="M2.457 15.052l7.543-7.543 1.885 1.885-6.6 6.6 6.6 6.6-1.885 1.885-7.543-7.543c-0.25-0.25-0.39-0.589-0.39-0.943s0.14-0.693 0.39-0.943z"></path>
</symbol>

</defs>
</svg>
